<?xml version="1.0" encoding="utf-8"?>
<!-- Generator: Adobe Illustrator 24.1.3, SVG Export Plug-In . SVG Version: 6.00 Build 0)  -->
<svg version="1.1" id="Camada_1" xmlns="http://www.w3.org/2000/svg" xmlns:xlink="http://www.w3.org/1999/xlink" x="0px" y="0px"
	 viewBox="0 0 187.6 36" style="enable-background:new 0 0 187.6 36;" xml:space="preserve">
<style type="text/css">
	.st0{fill:#FFFFFF;}
</style>
<desc>Created with Sketch.</desc>
<g id="noun_Running_1473810" transform="translate(224.890323, 0.000000)">
	<g id="Group">
		<path id="Path" class="st0" d="M-70.8,30.9c0-0.5-0.3-0.8-0.8-0.8H-86c-0.5,0-0.8,0.3-0.8,0.8s0.3,0.8,0.8,0.8h14.3
			C-71.2,31.7-70.8,31.3-70.8,30.9z"/>
		<path id="Path_1_" class="st0" d="M-82.7,34.2h-1.6c-0.5,0-0.8,0.3-0.8,0.8s0.3,0.8,0.8,0.8h1.6c0.5,0,0.8-0.3,0.8-0.8
			S-82.2,34.2-82.7,34.2z"/>
		<path id="Path_2_" class="st0" d="M-78.8,26.8c0-0.5-0.3-0.8-0.8-0.8h-8c-0.5,0-0.8,0.3-0.8,0.8c0,0.5,0.3,0.8,0.8,0.8h8
			C-79.2,27.6-78.8,27.2-78.8,26.8z"/>
		<path id="Shape" class="st0" d="M-37.9,28.2c-0.2-0.5-0.7-0.9-1.2-1.1l-6.3-2.4l0,0l0,0l-2.6-0.9c-0.7-0.3-1.4-0.8-1.8-1.5
			l-2.1-3.5c0.4-0.1,0.7-0.4,0.7-0.8c0-0.5-0.3-0.8-0.8-0.8h-0.8l-1-1.6c0.4-0.1,0.7-0.4,0.7-0.8c0-0.5-0.3-0.8-0.8-0.8h-0.8
			l-0.8-1.3c0.3-0.1,0.6-0.4,0.6-0.7c0-0.5-0.3-0.8-0.8-0.8h-0.7l-1.1-1.7c0,0,0-0.1-0.1-0.1c-1-1.1-2.3-1.7-3.7-1.6
			c-1.2,0.2-2.2,0.9-2.6,1.8c-0.1,0.2-0.1,0.5,0.1,0.7l6.8,11.6c0.1,0.2,0.2,0.3,0.4,0.3l8.4,3.2h0.1l2.5,0.9l0,0l0,0l0,0l0,0l0,0
			l6.2,2.4c0.2,0.1,0.3,0.2,0.4,0.4c0.3,0.7,0.3,1.3-0.1,2h-13.4c-0.8,0-1.6-0.2-2.3-0.7l-23-16.9c0,0,0.3-0.2,0.7-0.7
			c0.4-0.6,0.6-1.3,0.6-2l-0.7-6.9l1-1.6c0.2-0.3,0.7-0.4,1.1-0.2c0.2,0.2,1.2,1.1,3.6,4.9c1.2,1.8,3.2,3.1,5.4,3.4
			c0.4,0.1,0.9-0.2,1-0.7c0.1-0.4-0.2-0.9-0.7-1c-1.7-0.3-3.4-1.3-4.4-2.8c-2.9-4.4-3.7-5.1-4-5.3C-75.5-0.2-77,0-77.9,1.1l-5,7.9
			c-0.3,0.5-0.4,1.1-0.3,1.6c-0.5,0.2-1,0.4-1.2,0.9l-1.3,2c-0.7,1.1-0.4,2.5,0.7,3.3c0.7,0.6,2.3,1.6,4.6,3
			c0.2,0.1,0.3,0.2,0.4,0.2c0.2,0,0.5-0.2,0.7-0.4c0.2-0.4,0.2-0.9-0.2-1.1c-2.2-1.5-3.8-2.5-4.5-3c-0.3-0.2-0.4-0.7-0.2-1.1
			l1.2-1.9c0.2-0.3,0.7-0.4,1.1-0.2l0,0l25.9,19.1c1,0.7,2.1,1.1,3.3,1.1h11.4c-1.7,0.8-4.1,1.6-6.2,1.6l0,0h-2.9H-53l0,0
			c-1.4,0-2.8-0.4-4-1.1c-4.8-3-13.7-8.7-20.2-12.8c-0.4-0.2-0.9-0.2-1.2,0.2c-0.2,0.4-0.2,0.9,0.2,1.1c6.3,4.1,15,9.6,19.9,12.7
			h-21.3c-0.5,0-0.8,0.3-0.8,0.8c0,0.5,0.3,0.8,0.8,0.8H-53l0,0h2.4h2.8l0,0c3.4,0,8.2-1.8,9.5-3.5C-37.2,30.9-37.1,29.5-37.9,28.2z
			 M-56.1,20.8l-6.4-10.9c0.2-0.2,0.7-0.5,1.2-0.6c0.5-0.1,1.4,0,2.2,0.9l0.5,0.8h-0.7c-0.5,0-0.8,0.3-0.8,0.8s0.3,0.8,0.8,0.8h1.7
			l0.8,1.3h-0.7c-0.5,0-0.8,0.3-0.8,0.8c0,0.5,0.3,0.8,0.8,0.8h1.6l1,1.6h-0.7c-0.5,0-0.8,0.3-0.8,0.8c0,0.5,0.3,0.8,0.8,0.8h1.6
			l2.3,3.6L-56.1,20.8z M-81.5,9.9l2.6-4l0.5,4.7c0,0.3-0.1,0.7-0.2,0.9c-0.2,0.2-0.5,0.9-1.2,0.3c0,0-0.4-0.2-1.2-0.8
			C-81.6,10.7-81.6,10.3-81.5,9.9z"/>
	</g>
</g>
<path class="st0" d="M10.3,9.7h5.4v15.5c0,1.4-0.3,2.7-1,3.9s-1.6,2-2.8,2.6c-1.2,0.6-2.5,0.9-4,0.9c-2.5,0-4.4-0.6-5.8-1.9
	c-1.4-1.2-2.1-3-2.1-5.3h5.5c0,1,0.2,1.8,0.5,2.3c0.4,0.5,1,0.7,1.8,0.7c0.8,0,1.3-0.3,1.8-0.8c0.4-0.6,0.6-1.4,0.6-2.4V9.7z"/>
<path class="st0" d="M30.9,26.3c0-0.8-0.3-1.4-0.8-1.9c-0.6-0.4-1.6-0.9-3-1.4c-1.4-0.5-2.6-0.9-3.5-1.4c-2.9-1.4-4.4-3.4-4.4-5.9
	c0-1.3,0.4-2.4,1.1-3.3c0.7-1,1.8-1.7,3.1-2.2c1.3-0.5,2.8-0.8,4.5-0.8c1.6,0,3.1,0.3,4.4,0.9s2.3,1.4,3,2.5
	c0.7,1.1,1.1,2.3,1.1,3.7h-5.4c0-0.9-0.3-1.6-0.8-2.1c-0.6-0.5-1.3-0.8-2.3-0.8c-1,0-1.7,0.2-2.3,0.6s-0.8,1-0.8,1.6
	c0,0.6,0.3,1.1,0.9,1.6c0.6,0.5,1.7,1,3.3,1.5s2.9,1,3.9,1.6c2.4,1.4,3.7,3.4,3.7,5.8c0,2-0.7,3.5-2.2,4.7c-1.5,1.1-3.5,1.7-6.1,1.7
	c-1.8,0-3.5-0.3-5-1c-1.5-0.7-2.6-1.6-3.4-2.7c-0.8-1.1-1.1-2.5-1.1-4H24c0,1.2,0.3,2.1,0.9,2.7c0.6,0.6,1.6,0.9,3.1,0.9
	c0.9,0,1.6-0.2,2.1-0.6C30.6,27.6,30.9,27,30.9,26.3z"/>
<path class="st0" d="M58.1,32.3h-5.4v-9.5h-8v9.5h-5.5V9.7h5.5v9h8v-9h5.4V32.3z"/>
<path class="st0" d="M81.3,21.6c0,2.3-0.4,4.4-1.3,6.2c-0.9,1.8-2.1,3.2-3.7,4.1c-1.6,1-3.4,1.5-5.4,1.5c-2,0-3.8-0.5-5.4-1.4
	c-1.6-0.9-2.8-2.3-3.7-4c-0.9-1.7-1.3-3.7-1.4-6v-1.3c0-2.3,0.4-4.4,1.3-6.2c0.9-1.8,2.1-3.2,3.7-4.1c1.6-1,3.4-1.5,5.5-1.5
	c2,0,3.8,0.5,5.4,1.4c1.6,1,2.8,2.3,3.7,4.1s1.3,3.8,1.3,6.1V21.6z M75.4,20.6c0-2.4-0.4-4.2-1.2-5.4c-0.8-1.2-1.9-1.8-3.4-1.8
	c-2.9,0-4.4,2.2-4.6,6.5l0,1.8c0,2.3,0.4,4.1,1.2,5.4c0.8,1.3,1.9,1.9,3.5,1.9c1.5,0,2.6-0.6,3.4-1.9c0.8-1.2,1.2-3,1.2-5.3V20.6z"
	/>
<path class="st0" d="M97.6,22.7H89v5.4h10.1v4.2H83.6V9.7h15.6v4.2H89v4.8h8.6V22.7z"/>
<path class="st0" d="M113.1,26.3c0-0.8-0.3-1.4-0.8-1.9c-0.6-0.4-1.6-0.9-3-1.4c-1.4-0.5-2.6-0.9-3.5-1.4c-2.9-1.4-4.4-3.4-4.4-5.9
	c0-1.3,0.4-2.4,1.1-3.3c0.7-1,1.8-1.7,3.1-2.2c1.3-0.5,2.8-0.8,4.5-0.8c1.6,0,3.1,0.3,4.4,0.9c1.3,0.6,2.3,1.4,3,2.5
	c0.7,1.1,1.1,2.3,1.1,3.7h-5.4c0-0.9-0.3-1.6-0.8-2.1c-0.6-0.5-1.3-0.8-2.3-0.8c-1,0-1.7,0.2-2.3,0.6s-0.8,1-0.8,1.6
	c0,0.6,0.3,1.1,0.9,1.6c0.6,0.5,1.7,1,3.3,1.5s2.9,1,3.9,1.6c2.4,1.4,3.7,3.4,3.7,5.8c0,2-0.7,3.5-2.2,4.7s-3.5,1.7-6.1,1.7
	c-1.8,0-3.5-0.3-5-1s-2.6-1.6-3.4-2.7c-0.8-1.1-1.1-2.5-1.1-4h5.5c0,1.2,0.3,2.1,0.9,2.7c0.6,0.6,1.6,0.9,3.1,0.9
	c0.9,0,1.6-0.2,2.1-0.6C112.8,27.6,113.1,27,113.1,26.3z"/>
</svg>
